<svg xmlns="http://www.w3.org/2000/svg" version="1.1" xmlns:xlink="http://www.w3.org/1999/xlink" xmlns:svgjs="http://svgjs.dev/svgjs" width="2000" height="600" preserveAspectRatio="none" viewBox="0 0 2000 600"><g mask="url(&quot;#SvgjsMask1028&quot;)" fill="none"><rect width="2000" height="600" x="0" y="0" fill="rgba(4, 26, 48, 1)"></rect><path d="M630 521L629 262" stroke-width="8" stroke="url(&quot;#SvgjsLinearGradient1029&quot;)" stroke-linecap="round" class="Down"></path><path d="M938 552L937 900" stroke-width="6" stroke="url(&quot;#SvgjsLinearGradient1029&quot;)" stroke-linecap="round" class="Down"></path><path d="M716 451L715 193" stroke-width="6" stroke="url(&quot;#SvgjsLinearGradient1030&quot;)" stroke-linecap="round" class="Up"></path><path d="M1012 322L1011 -20" stroke-width="6" stroke="url(&quot;#SvgjsLinearGradient1029&quot;)" stroke-linecap="round" class="Down"></path><path d="M144 206L143 -13" stroke-width="6" stroke="url(&quot;#SvgjsLinearGradient1029&quot;)" stroke-linecap="round" class="Down"></path><path d="M594 407L593 571" stroke-width="6" stroke="url(&quot;#SvgjsLinearGradient1030&quot;)" stroke-linecap="round" class="Up"></path><path d="M734 556L733 203" stroke-width="6" stroke="url(&quot;#SvgjsLinearGradient1029&quot;)" stroke-linecap="round" class="Down"></path><path d="M1763 260L1762 561" stroke-width="10" stroke="url(&quot;#SvgjsLinearGradient1029&quot;)" stroke-linecap="round" class="Down"></path><path d="M1803 262L1802 -151" stroke-width="6" stroke="url(&quot;#SvgjsLinearGradient1029&quot;)" stroke-linecap="round" class="Down"></path><path d="M1172 431L1171 107" stroke-width="10" stroke="url(&quot;#SvgjsLinearGradient1030&quot;)" stroke-linecap="round" class="Up"></path><path d="M34 474L33 49" stroke-width="8" stroke="url(&quot;#SvgjsLinearGradient1030&quot;)" stroke-linecap="round" class="Up"></path><path d="M1564 188L1563 544" stroke-width="6" stroke="url(&quot;#SvgjsLinearGradient1029&quot;)" stroke-linecap="round" class="Down"></path><path d="M1615 213L1614 -129" stroke-width="6" stroke="url(&quot;#SvgjsLinearGradient1030&quot;)" stroke-linecap="round" class="Up"></path><path d="M560 481L559 260" stroke-width="8" stroke="url(&quot;#SvgjsLinearGradient1030&quot;)" stroke-linecap="round" class="Up"></path><path d="M1781 119L1780 -70" stroke-width="6" stroke="url(&quot;#SvgjsLinearGradient1029&quot;)" stroke-linecap="round" class="Down"></path><path d="M1546 568L1545 239" stroke-width="6" stroke="url(&quot;#SvgjsLinearGradient1029&quot;)" stroke-linecap="round" class="Down"></path><path d="M1472 194L1471 380" stroke-width="10" stroke="url(&quot;#SvgjsLinearGradient1029&quot;)" stroke-linecap="round" class="Down"></path><path d="M1124 143L1123 -306" stroke-width="10" stroke="url(&quot;#SvgjsLinearGradient1029&quot;)" stroke-linecap="round" class="Down"></path><path d="M499 340L498 88" stroke-width="10" stroke="url(&quot;#SvgjsLinearGradient1029&quot;)" stroke-linecap="round" class="Down"></path><path d="M2000 474L1999 318" stroke-width="6" stroke="url(&quot;#SvgjsLinearGradient1030&quot;)" stroke-linecap="round" class="Up"></path><path d="M1933 117L1932 514" stroke-width="6" stroke="url(&quot;#SvgjsLinearGradient1030&quot;)" stroke-linecap="round" class="Up"></path><path d="M1206 39L1205 482" stroke-width="10" stroke="url(&quot;#SvgjsLinearGradient1030&quot;)" stroke-linecap="round" class="Up"></path><path d="M1111 513L1110 209" stroke-width="6" stroke="url(&quot;#SvgjsLinearGradient1029&quot;)" stroke-linecap="round" class="Down"></path><path d="M1422 295L1421 -80" stroke-width="6" stroke="url(&quot;#SvgjsLinearGradient1029&quot;)" stroke-linecap="round" class="Down"></path><path d="M1610 37L1609 -124" stroke-width="6" stroke="url(&quot;#SvgjsLinearGradient1029&quot;)" stroke-linecap="round" class="Down"></path><path d="M1412 275L1411 594" stroke-width="6" stroke="url(&quot;#SvgjsLinearGradient1030&quot;)" stroke-linecap="round" class="Up"></path><path d="M226 217L225 -17" stroke-width="10" stroke="url(&quot;#SvgjsLinearGradient1030&quot;)" stroke-linecap="round" class="Up"></path><path d="M952 364L951 540" stroke-width="10" stroke="url(&quot;#SvgjsLinearGradient1029&quot;)" stroke-linecap="round" class="Down"></path><path d="M1023 99L1022 -95" stroke-width="6" stroke="url(&quot;#SvgjsLinearGradient1030&quot;)" stroke-linecap="round" class="Up"></path><path d="M580 465L579 248" stroke-width="6" stroke="url(&quot;#SvgjsLinearGradient1030&quot;)" stroke-linecap="round" class="Up"></path><path d="M964 321L963 -55" stroke-width="8" stroke="url(&quot;#SvgjsLinearGradient1030&quot;)" stroke-linecap="round" class="Up"></path><path d="M889 313L888 26" stroke-width="6" stroke="url(&quot;#SvgjsLinearGradient1030&quot;)" stroke-linecap="round" class="Up"></path><path d="M616 179L615 428" stroke-width="6" stroke="url(&quot;#SvgjsLinearGradient1030&quot;)" stroke-linecap="round" class="Up"></path><path d="M45 250L44 63" stroke-width="8" stroke="url(&quot;#SvgjsLinearGradient1029&quot;)" stroke-linecap="round" class="Down"></path><path d="M733 349L732 699" stroke-width="10" stroke="url(&quot;#SvgjsLinearGradient1030&quot;)" stroke-linecap="round" class="Up"></path><path d="M652 340L651 164" stroke-width="6" stroke="url(&quot;#SvgjsLinearGradient1030&quot;)" stroke-linecap="round" class="Up"></path><path d="M1487 245L1486 -102" stroke-width="8" stroke="url(&quot;#SvgjsLinearGradient1029&quot;)" stroke-linecap="round" class="Down"></path><path d="M942 527L941 744" stroke-width="8" stroke="url(&quot;#SvgjsLinearGradient1030&quot;)" stroke-linecap="round" class="Up"></path><path d="M1480 375L1479 806" stroke-width="10" stroke="url(&quot;#SvgjsLinearGradient1029&quot;)" stroke-linecap="round" class="Down"></path><path d="M1895 538L1894 356" stroke-width="10" stroke="url(&quot;#SvgjsLinearGradient1030&quot;)" stroke-linecap="round" class="Up"></path><path d="M446 577L445 953" stroke-width="6" stroke="url(&quot;#SvgjsLinearGradient1029&quot;)" stroke-linecap="round" class="Down"></path><path d="M1699 248L1698 -63" stroke-width="8" stroke="url(&quot;#SvgjsLinearGradient1029&quot;)" stroke-linecap="round" class="Down"></path><path d="M1535 233L1534 -156" stroke-width="6" stroke="url(&quot;#SvgjsLinearGradient1030&quot;)" stroke-linecap="round" class="Up"></path><path d="M1471 524L1470 836" stroke-width="6" stroke="url(&quot;#SvgjsLinearGradient1030&quot;)" stroke-linecap="round" class="Up"></path><path d="M581 432L580 638" stroke-width="8" stroke="url(&quot;#SvgjsLinearGradient1029&quot;)" stroke-linecap="round" class="Down"></path><path d="M1352 68L1351 -216" stroke-width="6" stroke="url(&quot;#SvgjsLinearGradient1030&quot;)" stroke-linecap="round" class="Up"></path><path d="M3 252L2 605" stroke-width="10" stroke="url(&quot;#SvgjsLinearGradient1030&quot;)" stroke-linecap="round" class="Up"></path><path d="M1972 206L1971 576" stroke-width="10" stroke="url(&quot;#SvgjsLinearGradient1029&quot;)" stroke-linecap="round" class="Down"></path><path d="M610 266L609 480" stroke-width="8" stroke="url(&quot;#SvgjsLinearGradient1029&quot;)" stroke-linecap="round" class="Down"></path><path d="M1684 386L1683 750" stroke-width="8" stroke="url(&quot;#SvgjsLinearGradient1029&quot;)" stroke-linecap="round" class="Down"></path></g><defs><mask id="SvgjsMask1028"><rect width="2000" height="600" fill="#ffffff"></rect></mask><linearGradient x1="0%" y1="0%" x2="0%" y2="100%" id="SvgjsLinearGradient1029"><stop stop-color="rgba(5, 33, 63, 0)" offset="0"></stop><stop stop-color="rgba(5, 33, 63, 1)" offset="1"></stop></linearGradient><linearGradient x1="0%" y1="100%" x2="0%" y2="0%" id="SvgjsLinearGradient1030"><stop stop-color="rgba(5, 33, 63, 0)" offset="0"></stop><stop stop-color="rgba(5, 33, 63, 1)" offset="1"></stop></linearGradient></defs></svg>